<svg width="32" height="32" viewBox="0 0 32 32" fill="none" xmlns="http://www.w3.org/2000/svg">
  <circle cx="16" cy="16" r="15" fill="#22c55e" stroke="#15803d" stroke-width="2"/>
  <path d="M16 2C8.268 2 2 8.268 2 16s6.268 14 14 14 14-6.268 14-14S23.732 2 16 2z" fill="#f0fdf4"/>
  <path d="M16 2c7.732 0 14 6.268 14 14s-6.268 14-14 14" stroke="#15803d" stroke-width="1.5" fill="none"/>
  <path d="M2 16h28" stroke="#15803d" stroke-width="1.5"/>
  <path d="M16 2c3.314 0 6 2.686 6 6s-2.686 6-6 6-6-2.686-6-6 2.686-6 6-6z" fill="#22c55e"/>
  <path d="M16 2c3.314 0 6 2.686 6 6s-2.686 6-6 6-6-2.686-6-6 2.686-6 6-6z" stroke="#15803d" stroke-width="1"/>
  <circle cx="16" cy="16" r="2" fill="#15803d"/>
</svg>
